<svg width="0" height="0" style="position:absolute"><symbol fill="none" viewBox="0 0 24 24" id="account" xmlns="http://www.w3.org/2000/svg"><path fill-rule="evenodd" clip-rule="evenodd" d="M12 2.1a5.1 5.1 0 1 0 0 10.2 5.1 5.1 0 0 0 0-10.2Zm3.753 10.89a6.9 6.9 0 1 0-7.507 0C4.301 14.502 1.5 18.324 1.5 22.8a.9.9 0 1 0 1.8 0 8.7 8.7 0 0 1 17.4 0 .9.9 0 1 0 1.8 0c0-4.477-2.802-8.299-6.747-9.81Z" fill="currentColor"/></symbol><symbol fill="none" viewBox="0 0 32 32" id="alert" xmlns="http://www.w3.org/2000/svg"><g clip-path="url(#aba)"><path fill-rule="evenodd" clip-rule="evenodd" d="M16 2.8C8.71 2.8 2.8 8.71 2.8 16c0 7.29 5.91 13.2 13.2 13.2 7.29 0 13.2-5.91 13.2-13.2 0-7.29-5.91-13.2-13.2-13.2ZM.4 16C.4 7.386 7.385.4 16 .4 24.616.4 31.6 7.386 31.6 16c0 8.616-6.984 15.6-15.6 15.6C7.385 31.6.4 24.617.4 16ZM16 6.8A1.2 1.2 0 0 1 17.2 8v10.667a1.2 1.2 0 1 1-2.4 0V8A1.2 1.2 0 0 1 16 6.8Zm0 18.534a1.333 1.333 0 1 0 0-2.667 1.333 1.333 0 0 0 0 2.667Z" fill="#BFCFD5"/></g><defs><clipPath id="aba"><path fill="#fff" d="M0 0h32v32H0z"/></clipPath></defs></symbol><symbol fill="none" viewBox="0 0 24 25" id="arrow" xmlns="http://www.w3.org/2000/svg"><path d="M15.667 5.5c0 .742.672 1.85 1.352 2.78.874 1.2 1.92 2.247 3.117 3.046.899.6 1.988 1.174 2.864 1.174m0 0c-.876 0-1.966.575-2.864 1.174-1.198.8-2.243 1.847-3.117 3.045-.68.931-1.352 2.041-1.352 2.781m7.333-7H1" stroke="#fff" stroke-width="2"/></symbol><symbol fill="none" viewBox="0 0 14 8" id="arrow-bottom" xmlns="http://www.w3.org/2000/svg"><path d="M7 7.995a.98.98 0 0 1-.695-.288L.271 1.672a.983.983 0 0 1 1.39-1.39l5.34 5.34 5.338-5.34a.983.983 0 0 1 1.39 1.39L7.695 7.707A.98.98 0 0 1 7 7.995Z" fill="currentColor"/></symbol><symbol fill="none" viewBox="0 0 24 24" id="arrow-left" xmlns="http://www.w3.org/2000/svg"><path fill-rule="evenodd" clip-rule="evenodd" d="M3.165 12.715a1.1 1.1 0 0 1 0-1.432l6-7a1.1 1.1 0 0 1 1.67 1.432l-4.443 5.184H20a1.1 1.1 0 0 1 0 2.2H6.392l4.443 5.184a1.1 1.1 0 1 1-1.67 1.432l-6-7Z" fill="currentColor"/></symbol><symbol fill="none" viewBox="0 0 5 12" id="arrow-right" xmlns="http://www.w3.org/2000/svg"><path d="m4.814 6.497-3.767 4.317a.56.56 0 0 1-.867 0 .778.778 0 0 1 0-.994L3.513 6 .18 2.18a.778.778 0 0 1 0-.994.56.56 0 0 1 .867 0l3.768 4.317c.12.137.18.317.18.497s-.06.36-.18.497Z" fill="currentColor"/></symbol><symbol fill="none" viewBox="0 0 15 16" id="arrow-right-long" xmlns="http://www.w3.org/2000/svg"><path fill-rule="evenodd" clip-rule="evenodd" d="M13.022 7.554c.22.257.22.637 0 .894l-3.75 4.375a.687.687 0 1 1-1.044-.894l2.777-3.24H2.5a.688.688 0 0 1 0-1.376h8.505l-2.777-3.24a.688.688 0 1 1 1.044-.894l3.75 4.375Z" fill="#fff"/></symbol><symbol fill="none" viewBox="0 0 16 16" id="arrow-right-long-red" xmlns="http://www.w3.org/2000/svg"><path fill-rule="evenodd" clip-rule="evenodd" d="M13.522 7.595c.22.258.22.637 0 .895l-3.75 4.375a.687.687 0 1 1-1.044-.895l2.777-3.24H3a.688.688 0 0 1 0-1.375h8.505l-2.777-3.24a.688.688 0 1 1 1.044-.895l3.75 4.375Z" fill="#FF3900"/></symbol><symbol fill="none" viewBox="0 0 20 20" id="arrow-right-white" xmlns="http://www.w3.org/2000/svg"><path fill-rule="evenodd" clip-rule="evenodd" d="M17.362 9.404a.917.917 0 0 1 0 1.193l-5 5.834a.917.917 0 1 1-1.392-1.193l3.703-4.32H3.333a.917.917 0 0 1 0-1.834h11.34l-3.703-4.32a.917.917 0 1 1 1.392-1.193l5 5.833Z" fill="#fff"/></symbol><symbol fill="none" viewBox="0 0 20 21" id="bin" xmlns="http://www.w3.org/2000/svg"><path fill-rule="evenodd" clip-rule="evenodd" d="M4.167 2.167a.833.833 0 0 0 0 1.667h11.666a.833.833 0 0 0 0-1.667H4.167ZM5 4.667a.833.833 0 0 0-.833.833V18c0 .46.373.834.833.834h10c.46 0 .834-.373.834-.834V5.5A.833.833 0 0 0 15 4.667H5Zm.833 12.5V6.334h8.334v10.833H5.834Zm2.5-1.667a.833.833 0 0 1-.833-.833V8.834a.833.833 0 0 1 1.667 0v5.833c0 .46-.373.833-.833.833Zm2.5-.833a.833.833 0 1 0 1.667 0V8.834a.833.833 0 0 0-1.666 0v5.833Z" fill="currentColor"/></symbol><symbol fill="none" viewBox="0 0 24 24" id="burger" xmlns="http://www.w3.org/2000/svg"><path fill-rule="evenodd" clip-rule="evenodd" d="M2.821 3.1a.9.9 0 1 0 0 1.8h18.24a.9.9 0 0 0 0-1.8H2.821Zm-.9 8.58a.9.9 0 0 1 .9-.9h18.24a.9.9 0 0 1 0 1.8H2.821a.9.9 0 0 1-.9-.9Zm0 7.68a.9.9 0 0 1 .9-.9h18.24a.9.9 0 0 1 0 1.8H2.821a.9.9 0 0 1-.9-.9Z" fill="#141414"/></symbol><symbol fill="none" viewBox="0 0 24 24" id="check" xmlns="http://www.w3.org/2000/svg"><path fill-rule="evenodd" clip-rule="evenodd" d="M22.764 4.209a1.1 1.1 0 0 1 .027 1.555l-12.558 13a1.1 1.1 0 0 1-1.54.04L2.25 12.807a1.1 1.1 0 0 1 1.5-1.61L9.4 16.459 21.21 4.236a1.1 1.1 0 0 1 1.555-.027Z" fill="currentColor"/></symbol><symbol fill="none" viewBox="0 0 32 32" id="copy" xmlns="http://www.w3.org/2000/svg"><path fill-rule="evenodd" clip-rule="evenodd" d="M10.666 1.473a1.2 1.2 0 0 0 0 2.4h12a2.8 2.8 0 0 1 2.8 2.8v17.333a1.2 1.2 0 0 0 2.4 0V6.673a5.2 5.2 0 0 0-5.2-5.2h-12Zm-4 3.994A2.533 2.533 0 0 0 4.133 8v20c0 1.4 1.134 2.533 2.533 2.533h14.667c1.399 0 2.533-1.134 2.533-2.533V8c0-1.4-1.134-2.533-2.533-2.533H6.666ZM6.533 8c0-.074.06-.133.133-.133h14.667c.074 0 .133.06.133.133v20c0 .074-.06.133-.133.133H6.666A.133.133 0 0 1 6.533 28V8Z" fill="#D2D0E7"/></symbol><symbol fill="none" viewBox="0 0 20 20" id="cross" xmlns="http://www.w3.org/2000/svg"><path fill-rule="evenodd" clip-rule="evenodd" d="M2.685 2.685a.917.917 0 0 1 1.297 0L10 8.704l6.019-6.019a.917.917 0 0 1 1.296 1.297L11.297 10l6.018 6.018a.917.917 0 1 1-1.296 1.297L10 11.296l-6.018 6.019a.917.917 0 0 1-1.297-1.297L8.704 10 2.685 3.982a.917.917 0 0 1 0-1.297Z" fill="currentColor"/></symbol><symbol fill="none" viewBox="0 0 16 16" id="dots" xmlns="http://www.w3.org/2000/svg"><path fill-rule="evenodd" clip-rule="evenodd" d="M2.667 9.333a1.333 1.333 0 1 0 0-2.666 1.333 1.333 0 0 0 0 2.666ZM9.333 8a1.333 1.333 0 1 1-2.666 0 1.333 1.333 0 0 1 2.666 0Zm5.334 0A1.333 1.333 0 1 1 12 8a1.333 1.333 0 0 1 2.667 0Z" fill="currentColor"/></symbol><symbol fill="none" viewBox="0 0 13 8" id="down" xmlns="http://www.w3.org/2000/svg"><path d="M6.5 8 .87.5h11.26L6.5 8Z" fill="currentColor"/></symbol><symbol fill="none" viewBox="0 0 24 24" id="email" xmlns="http://www.w3.org/2000/svg"><path fill-rule="evenodd" clip-rule="evenodd" d="M2 4a1 1 0 0 0-1 1v14a1 1 0 0 0 1 1h20a1 1 0 0 0 1-1V5a1 1 0 0 0-1-1H2Zm1 2.92V18h18V6.92l-8.427 5.9-.573.401-.573-.401L3 6.92ZM18.828 6H5.172L12 10.78 18.828 6Z" fill="currentColor"/></symbol><symbol fill="none" viewBox="0 0 20 20" id="eye" xmlns="http://www.w3.org/2000/svg"><path fill-rule="evenodd" clip-rule="evenodd" d="M6.593 13.547C4.97 12.87 3.363 11.7 1.828 10c1.534-1.698 3.142-2.87 4.765-3.545A4.902 4.902 0 0 0 5.082 10c0 1.394.58 2.651 1.51 3.546Zm6.812 0c1.622-.676 3.23-1.847 4.764-3.546-1.534-1.698-3.142-2.869-4.764-3.545A4.902 4.902 0 0 1 14.915 10c0 1.393-.58 2.651-1.51 3.546Zm6.333-4.03C16.82 6.07 13.455 4.25 9.998 4.25 6.543 4.251 3.177 6.07.26 9.517a.75.75 0 0 0 0 .969C3.176 13.933 6.542 15.75 10 15.75c3.456 0 6.822-1.818 9.739-5.265a.75.75 0 0 0 0-.97ZM6.582 10a3.417 3.417 0 1 1 6.833 0 3.417 3.417 0 0 1-6.833 0Z" fill="currentColor"/></symbol><symbol fill="none" viewBox="0 0 20 21" id="filter" xmlns="http://www.w3.org/2000/svg"><g clip-path="url(#asa)"><path fill-rule="evenodd" clip-rule="evenodd" d="M14.918 3.833a1.75 1.75 0 1 1 3.5 0 1.75 1.75 0 0 1-3.5 0Zm-1.413.75H2.5a.75.75 0 1 1 0-1.5h11.004a3.251 3.251 0 0 1 6.413.75 3.25 3.25 0 0 1-6.413.75ZM3.335 7.25a3.251 3.251 0 0 1 3.162 2.5h11.004a.75.75 0 1 1 0 1.5H6.497a3.251 3.251 0 0 1-6.413-.75 3.25 3.25 0 0 1 3.25-3.25Zm1.75 3.25a1.75 1.75 0 1 1-3.5 0 1.75 1.75 0 0 1 3.5 0ZM2.5 16.417a.75.75 0 0 0 0 1.5h11.004a3.251 3.251 0 0 0 6.413-.75 3.25 3.25 0 0 0-6.413-.75H2.5Zm12.417.75a1.75 1.75 0 1 0 3.5 0 1.75 1.75 0 0 0-3.5 0Z" fill="#141414"/></g><defs><clipPath id="asa"><path fill="#fff" transform="translate(0 .5)" d="M0 0h20v20H0z"/></clipPath></defs></symbol><symbol fill="none" viewBox="0 0 20 20" id="fire" xmlns="http://www.w3.org/2000/svg"><path d="M16.075 9.185c-.246-.305-.546-.57-.825-.835-.718-.61-1.532-1.049-2.217-1.69-1.596-1.488-1.95-3.942-.932-5.827-1.018.235-1.907.764-2.668 1.345-2.774 2.118-3.867 5.856-2.56 9.065a.825.825 0 0 1 .086.336c0 .224-.16.428-.375.51-.247.101-.504.04-.707-.123a.597.597 0 0 1-.15-.173c-1.21-1.457-1.403-3.545-.59-5.215-1.788 1.385-2.763 3.728-2.624 5.938.064.51.129 1.019.31 1.528.15.611.44 1.222.761 1.762 1.157 1.762 3.16 3.025 5.314 3.28 2.292.275 4.745-.122 6.502-1.63 1.96-1.69 2.646-4.4 1.639-6.722l-.14-.265c-.224-.469-.824-1.284-.824-1.284Zm-3.385 6.417c-.3.245-.793.51-1.178.611-1.2.408-2.4-.163-3.107-.835 1.275-.285 2.035-1.181 2.26-2.088.182-.815-.16-1.487-.3-2.271-.128-.754-.107-1.396.182-2.098.204.387.418.774.675 1.08.825 1.018 2.121 1.466 2.4 2.851.043.143.064.285.064.438.032.835-.353 1.752-.996 2.312Z" fill="currentColor"/></symbol><symbol fill="none" viewBox="0 0 25 25" id="insta" xmlns="http://www.w3.org/2000/svg"><g clip-path="url(#aua)"><path fill-rule="evenodd" clip-rule="evenodd" d="M18.351.668H7.598A6.63 6.63 0 0 0 .975 7.291v10.754a6.63 6.63 0 0 0 6.623 6.623H18.35a6.63 6.63 0 0 0 6.623-6.623V7.29A6.63 6.63 0 0 0 18.351.668Zm4.494 17.377a4.499 4.499 0 0 1-4.494 4.493H7.598a4.499 4.499 0 0 1-4.494-4.493V7.29a4.499 4.499 0 0 1 4.494-4.494H18.35a4.499 4.499 0 0 1 4.494 4.494v10.754Zm-9.87-11.561a6.191 6.191 0 0 0-6.185 6.184 6.19 6.19 0 0 0 6.184 6.184 6.19 6.19 0 0 0 6.184-6.184 6.191 6.191 0 0 0-6.184-6.184Zm0 10.239a4.06 4.06 0 0 1-4.056-4.055 4.06 4.06 0 0 1 4.055-4.055 4.06 4.06 0 0 1 4.055 4.055 4.06 4.06 0 0 1-4.055 4.055Zm5.34-11.587c.29-.291.693-.458 1.103-.458.412 0 .815.167 1.104.458.291.29.458.692.458 1.104 0 .41-.167.813-.458 1.104-.29.29-.692.458-1.104.458-.41 0-.813-.168-1.103-.458a1.575 1.575 0 0 1-.459-1.104c0-.412.168-.815.459-1.104Z" fill="#BFCFD5"/></g><defs><clipPath id="aua"><path fill="#fff" transform="translate(.975 .668)" d="M0 0h24v24H0z"/></clipPath></defs></symbol><symbol fill="none" viewBox="0 0 24 25" id="lang" xmlns="http://www.w3.org/2000/svg"><g clip-path="url(#ava)"><path fill-rule="evenodd" clip-rule="evenodd" d="M12 2.768c-.111 0-.223.002-.334.005-1.15 1.28-2 3.025-2.523 4.995h5.714c-.523-1.97-1.372-3.715-2.523-4.995-.11-.003-.222-.005-.333-.005Zm3.236 6.8H8.764a19.958 19.958 0 0 0-.24 3.1c0 1.051.082 2.093.24 3.1h6.472a19.95 19.95 0 0 0 .24-3.1c0-1.051-.082-2.093-.24-3.1Zm-7.95-1.8c.397-1.66 1.005-3.225 1.836-4.575a9.926 9.926 0 0 0-5.726 4.575h3.89Zm-4.69 1.8h4.349a21.842 21.842 0 0 0-.22 3.1c0 1.035.072 2.077.22 3.1h-4.35a9.89 9.89 0 0 1-.494-3.1c0-1.083.174-2.125.495-3.1Zm14.46 0h4.35c.321.975.495 2.017.495 3.1a9.893 9.893 0 0 1-.495 3.1h-4.35c.147-1.024.22-2.066.22-3.1 0-1.035-.073-2.076-.22-3.1Zm3.55-1.8h-3.893c-.396-1.66-1.004-3.226-1.835-4.576a9.926 9.926 0 0 1 5.727 4.576Zm-13.32 9.8h-3.89a9.926 9.926 0 0 0 5.726 4.575c-.831-1.35-1.44-2.915-1.835-4.575Zm7.572 0H9.142c.524 1.97 1.373 3.714 2.524 4.994a10.058 10.058 0 0 0 .668 0c1.15-1.28 2-3.025 2.524-4.994Zm.02 4.575c.831-1.35 1.44-2.915 1.835-4.575h3.892a9.926 9.926 0 0 1-5.727 4.575ZM.301 12.668C.3 6.206 5.539.968 12 .968c6.461 0 11.7 5.238 11.7 11.7 0 6.462-5.239 11.7-11.7 11.7-6.462 0-11.7-5.238-11.7-11.7Z" fill="#BFCFD5"/></g><defs><clipPath id="ava"><path fill="#fff" transform="translate(0 .668)" d="M0 0h24v24H0z"/></clipPath></defs></symbol><symbol fill="none" viewBox="0 0 245 21" id="logo" xmlns="http://www.w3.org/2000/svg"><g clip-path="url(#awa)"><path fill-rule="evenodd" clip-rule="evenodd" d="M117.996 6.294c0 1.891 3.439 2.42 8.109 2.737 5.734.404 11.042 1.236 11.042 5.46 0 3.802-4.221 6.164-11.017 6.164-4.937 0-9.243-1.316-12.454-3.814l-.044-.035 2.301-2.352.038.031c2.778 2.241 6.052 3.42 10.308 3.42 4.603 0 7.273-1.204 7.273-3.14 0-1.866-2.651-2.387-7.931-2.79-3.42-.258-5.95-.725-7.739-1.437-2.292-.91-3.452-2.238-3.452-4.03 0-1.794 1.106-3.29 3.179-4.337 1.906-.969 4.621-1.503 7.628-1.503 4.313 0 8.28 1.138 10.881 3.121l.044.035-2.333 2.27-.039-.029c-2.072-1.637-4.929-2.616-8.493-2.644-2.393-.013-5.524.512-6.748 1.672a1.625 1.625 0 0 0-.553 1.201ZM13.957.758C5.321.758.001 4.7.001 10.762c-.024 1.427.283 2.836.95 4.097a8.452 8.452 0 0 0 2.835 3.116c2.466 1.713 6.04 2.616 10.302 2.616 4.339 0 7.975-.928 11.443-2.925l.06-.035V9.367l-11.95-.022v2.788h9.016v3.896c-3.102 1.12-5.651 1.628-8.582 1.628-3.22 0-6.066-.636-7.897-1.847a5.825 5.825 0 0 1-2.048-2.15c-.485-.883-.793-1.875-.78-2.882-.013-1.012.297-2.012.784-2.9a5.883 5.883 0 0 1 2.057-2.17c1.837-1.22 4.69-1.952 7.91-1.952 4.11 0 7.57 1.196 11.226 3.095l.302-.051V3.59C22.463 1.841 18.347.758 13.957.758Zm78.293.509h-3.683l-12.518 18.83h3.973l2.807-4.327h14.98l2.719 4.27.034.057h3.974L92.288 1.32l-.038-.054Zm-7.539 11.662 5.67-8.719 5.598 8.719H84.71Zm74.802-3.898c-4.669-.318-8.108-.846-8.108-2.737a1.635 1.635 0 0 1 .556-1.201c1.221-1.16 4.348-1.688 6.745-1.672 3.563.028 6.421 1.007 8.496 2.644l.036.029 2.336-2.27-.048-.035c-2.6-1.983-6.567-3.121-10.877-3.121-3.01 0-5.722.534-7.645 1.503-2.069 1.046-3.178 2.543-3.178 4.336 0 1.793 1.163 3.122 3.455 4.03 1.786.713 4.317 1.18 7.737 1.437 5.283.404 7.946.925 7.946 2.791 0 1.936-2.67 3.14-7.272 3.14-4.257 0-7.531-1.179-10.309-3.42l-.038-.031-2.301 2.352.045.035c3.21 2.498 7.516 3.814 12.453 3.814 6.796 0 11.017-2.362 11.017-6.163-.003-4.225-5.311-5.057-11.046-5.461Zm47.35 11.069h-22.902V1.267h22.902v2.895h-19.386v5.086h16.875v2.845h-16.875v5.111h19.386V20.1ZM64.688 6.909c0-2.372-1.071-3.91-3.382-4.816-1.65-.636-3.662-.826-6.471-.826H40.603v18.83H44.1V12.74h10.33c.425.011.84.008 1.252.004.204-.002.408-.004.611-.004L61.1 20.1h3.64l.178-.239-5.032-7.606c2.79-.725 4.803-2.31 4.803-5.346ZM44.116 4.188h9.816c3.153 0 4.768.076 5.788.635.953.484 1.402 1.122 1.402 2.225s-.449 1.657-1.377 2.146c-1.02.55-2.682.636-5.556.636H44.116V4.188Zm199.302 2.72c0 3.036-2.013 4.622-4.803 5.347l5.063 7.594-.045.238h-3.639l-4.809-7.365c-.655.02-1.323.035-1.996.02h-10.343v7.355h-3.513V1.267h14.231c2.813 0 4.822.19 6.471.826 2.311.906 3.383 2.444 3.383 4.816Zm-10.757-2.72h-9.815V9.83h10.072c2.877 0 4.537-.086 5.557-.636.928-.49 1.379-1.043 1.379-2.146s-.448-1.741-1.401-2.225c-1.024-.559-2.639-.635-5.792-.635Z" fill="#FF3900"/></g><defs><clipPath id="awa"><path fill="#fff" transform="translate(0 .668)" d="M0 0h244.242v20H0z"/></clipPath></defs></symbol><symbol fill="none" viewBox="0 0 42 33" id="mastercard" xmlns="http://www.w3.org/2000/svg"><path d="M7.752 32.598v-2.124c0-.812-.495-1.344-1.344-1.344-.425 0-.887.14-1.204.602-.248-.388-.602-.602-1.134-.602-.355 0-.71.107-.99.495V29.2h-.742v3.398h.742V30.72c0-.602.318-.886.813-.886.494 0 .742.317.742.886v1.877h.742V30.72c0-.602.355-.886.812-.886.495 0 .743.317.743.886v1.877h.82Zm11.01-3.398h-1.204v-1.027h-.742V29.2h-.672v.672h.672v1.559c0 .78.318 1.237 1.167 1.237.318 0 .672-.107.92-.248l-.215-.639c-.214.14-.461.178-.639.178-.354 0-.495-.215-.495-.565v-1.522h1.205V29.2h.004Zm6.302-.074c-.425 0-.71.214-.887.494v-.424h-.742v3.398h.742V30.68c0-.565.247-.886.71-.886.14 0 .317.037.461.07l.215-.71c-.149-.028-.36-.028-.5-.028Zm-9.522.354c-.355-.247-.85-.354-1.381-.354-.85 0-1.415.424-1.415 1.096 0 .565.425.887 1.167.99l.355.037c.387.07.602.178.602.355 0 .247-.285.425-.78.425-.494 0-.886-.178-1.134-.355l-.354.565c.387.285.92.425 1.451.425.99 0 1.56-.462 1.56-1.097 0-.602-.463-.92-1.168-1.027l-.354-.037c-.318-.037-.566-.107-.566-.318 0-.247.248-.387.64-.387.424 0 .85.177 1.064.284l.313-.602Zm19.748-.354c-.424 0-.709.214-.886.494v-.424h-.742v3.398h.742V30.68c0-.565.247-.886.71-.886.14 0 .317.037.461.07l.214-.701c-.144-.037-.354-.037-.498-.037Zm-9.484 1.773c0 1.027.71 1.769 1.806 1.769.495 0 .85-.107 1.204-.388l-.354-.602c-.285.215-.565.318-.887.318-.602 0-1.027-.425-1.027-1.097 0-.64.425-1.064 1.027-1.097.317 0 .602.107.887.317l.354-.602c-.354-.284-.709-.387-1.204-.387-1.097-.004-1.806.742-1.806 1.769Zm6.866 0v-1.7h-.742v.425c-.248-.317-.602-.494-1.064-.494-.957 0-1.7.742-1.7 1.769s.743 1.769 1.7 1.769c.495 0 .85-.178 1.064-.495v.425h.742v-1.7Zm-2.726 0c0-.602.388-1.097 1.027-1.097.602 0 1.027.462 1.027 1.097 0 .602-.425 1.097-1.027 1.097-.635-.037-1.027-.5-1.027-1.097Zm-8.882-1.773c-.99 0-1.7.709-1.7 1.769 0 1.064.71 1.769 1.737 1.769.495 0 .99-.14 1.381-.462l-.354-.532c-.285.214-.64.355-.99.355-.462 0-.92-.215-1.027-.813h2.511v-.284c.033-1.093-.606-1.802-1.558-1.802Zm0 .639c.462 0 .779.284.85.812h-1.77c.07-.458.388-.812.92-.812Zm18.44 1.134v-3.044h-.741v1.77c-.248-.318-.602-.495-1.064-.495-.957 0-1.7.742-1.7 1.769s.743 1.769 1.7 1.769c.495 0 .85-.178 1.064-.495v.425h.742v-1.7Zm-2.725 0c0-.602.388-1.097 1.027-1.097.602 0 1.027.462 1.027 1.097 0 .602-.425 1.097-1.027 1.097-.64-.037-1.027-.5-1.027-1.097Zm-24.85 0v-1.7h-.742v.425c-.247-.317-.602-.494-1.063-.494-.957 0-1.7.742-1.7 1.769s.743 1.769 1.7 1.769c.494 0 .849-.178 1.063-.495v.425h.743v-1.7Zm-2.758 0c0-.602.388-1.097 1.027-1.097.602 0 1.027.462 1.027 1.097 0 .602-.425 1.097-1.027 1.097-.64-.037-1.027-.5-1.027-1.097Z" fill="#141414"/><path d="M26.445 3.394h-11.15v20.032h11.15V3.395Z" fill="#FF5A00"/><path d="M16.038 13.41c0-4.07 1.913-7.682 4.85-10.016a12.674 12.674 0 0 0-7.86-2.726C5.983.668.284 6.367.284 13.41c0 7.043 5.7 12.742 12.742 12.742 2.974 0 5.7-1.026 7.86-2.725a12.717 12.717 0 0 1-4.85-10.017Z" fill="#EB001B"/><path d="M41.489 13.41c0 7.043-5.7 12.742-12.742 12.742a12.674 12.674 0 0 1-7.86-2.725 12.673 12.673 0 0 0 4.85-10.017c0-4.07-1.914-7.682-4.85-10.016A12.653 12.653 0 0 1 28.742.668C35.79.668 41.49 6.404 41.49 13.41Z" fill="#F79E1B"/></symbol><symbol fill="none" viewBox="0 0 20 20" id="password-lock" xmlns="http://www.w3.org/2000/svg"><path fill-rule="evenodd" clip-rule="evenodd" d="m4.671 14.268-1.868 1.868 1.06 1.06 2.233-2.232c1.275.52 2.583.786 3.904.786 3.456 0 6.822-1.818 9.739-5.265a.75.75 0 0 0 0-.97c-1.382-1.633-2.866-2.9-4.411-3.783l1.869-1.869-1.061-1.06-2.233 2.233A10.268 10.268 0 0 0 10 4.25C6.543 4.25 3.177 6.07.26 9.516a.75.75 0 0 0 0 .969c1.383 1.633 2.865 2.9 4.411 3.783Zm1.362-1.362-.257.256C4.432 12.461 3.105 11.413 1.83 10 3.363 8.302 4.97 7.13 6.593 6.455A4.902 4.902 0 0 0 5.083 10c0 1.087.353 2.092.95 2.906Zm2.14-.018a3.417 3.417 0 0 0 4.715-4.715l-4.716 4.715Zm3.653-5.776-4.714 4.715a3.417 3.417 0 0 1 4.715-4.715Zm2.14-.018c.598.814.95 1.819.95 2.906 0 1.393-.58 2.651-1.51 3.546 1.622-.676 3.23-1.847 4.764-3.546-1.276-1.413-2.603-2.46-3.948-3.162l-.256.256Z" fill="currentColor"/></symbol><symbol fill="none" viewBox="0 0 20 20" id="password-unlock" xmlns="http://www.w3.org/2000/svg"><path fill-rule="evenodd" clip-rule="evenodd" d="M6.593 13.546C4.971 12.87 3.363 11.699 1.83 10 3.363 8.302 4.97 7.13 6.593 6.455A4.902 4.902 0 0 0 5.083 10c0 1.393.58 2.651 1.51 3.546Zm6.813 0c1.622-.676 3.23-1.847 4.764-3.546-1.534-1.698-3.142-2.87-4.764-3.545A4.902 4.902 0 0 1 14.916 10c0 1.393-.58 2.651-1.51 3.546Zm6.333-4.03c-2.917-3.447-6.283-5.266-9.74-5.266C6.544 4.25 3.178 6.07.26 9.516a.75.75 0 0 0 0 .969C3.177 13.932 6.543 15.75 10 15.75c3.456 0 6.822-1.818 9.739-5.265a.75.75 0 0 0 0-.97ZM6.583 10a3.417 3.417 0 1 1 6.833 0 3.417 3.417 0 0 1-6.833 0Z" fill="currentColor"/></symbol><symbol fill="none" viewBox="0 0 81 22" id="paypal" xmlns="http://www.w3.org/2000/svg"><path d="M26.072 4.305a.334.334 0 0 0-.33.282l-1.906 12.086a.31.31 0 0 0 .305.358h2.26c.165 0 .305-.12.33-.283l.56-3.549a.334.334 0 0 1 .33-.282h2.056a4.874 4.874 0 0 0 4.811-4.126c.376-2.394-1.495-4.481-4.145-4.486h-4.271Zm2.197 2.698h1.644c1.354 0 1.794.798 1.655 1.682-.14.885-.824 1.537-2.133 1.537H27.76l.508-3.22Zm10.816.821c-.57.003-1.227.12-1.965.427-1.69.704-2.503 2.161-2.848 3.223 0 0-1.097 3.24 1.383 5.02 0 0 2.3 1.715 4.889-.105l-.045.284a.31.31 0 0 0 .305.358h2.146c.165 0 .305-.12.33-.283l1.305-8.276a.31.31 0 0 0-.305-.358h-2.145a.334.334 0 0 0-.33.282l-.07.446s-.938-1.024-2.65-1.018Zm.07 2.615a2.2 2.2 0 0 1 .674.099c.926.297 1.45 1.186 1.299 2.15-.188 1.187-1.16 2.061-2.41 2.061-.246 0-.47-.034-.673-.099-.926-.297-1.454-1.186-1.302-2.15a2.407 2.407 0 0 1 2.412-2.061Z" fill="#003087"/><path d="M56.968 4.305a.334.334 0 0 0-.33.282l-1.906 12.086a.308.308 0 0 0 .306.358h2.26c.164 0 .305-.12.33-.283l.56-3.549a.334.334 0 0 1 .33-.282h2.055c2.401 0 4.44-1.752 4.811-4.126.376-2.394-1.494-4.481-4.145-4.486h-4.27Zm2.197 2.698h1.645c1.353 0 1.794.798 1.654 1.682-.139.885-.823 1.537-2.133 1.537h-1.673l.507-3.22Zm10.816.821c-.57.003-1.227.12-1.964.427-1.691.704-2.504 2.161-2.849 3.223 0 0-1.097 3.24 1.383 5.02 0 0 2.3 1.715 4.89-.105l-.045.284a.31.31 0 0 0 .305.358h2.146c.164 0 .304-.12.33-.283l1.306-8.276a.309.309 0 0 0-.306-.358h-2.146a.334.334 0 0 0-.33.282l-.07.446s-.937-1.024-2.65-1.018Zm.07 2.615a2.2 2.2 0 0 1 .674.099c.926.297 1.451 1.186 1.3 2.15-.188 1.187-1.162 2.061-2.41 2.061-.246 0-.472-.034-.674-.099-.926-.297-1.454-1.186-1.302-2.15a2.407 2.407 0 0 1 2.412-2.061Z" fill="#0070E0"/><path d="M45.603 8.114a.251.251 0 0 0-.24.327l2.353 7.3-2.127 3.44a.25.25 0 0 0 .213.382h2.514a.417.417 0 0 0 .357-.201l6.57-10.868a.251.251 0 0 0-.215-.38h-2.513a.418.418 0 0 0-.36.205l-2.586 4.365-1.313-4.333a.335.335 0 0 0-.32-.238h-2.333Z" fill="#003087"/><path d="M77.922 4.305a.334.334 0 0 0-.33.282l-1.906 12.086a.307.307 0 0 0 .175.33.31.31 0 0 0 .13.028h2.26c.165 0 .305-.12.33-.283l1.906-12.086a.309.309 0 0 0-.305-.357h-2.26Z" fill="#0070E0"/><path d="M7.228 4.305a.612.612 0 0 0-.604.516l-1.003 6.363a.611.611 0 0 1 .604-.516h2.94a6.004 6.004 0 0 0 5.928-5.084 4.91 4.91 0 0 0 .057-.66 5.58 5.58 0 0 0-2.602-.62h-5.32Z" fill="#001C64"/><path d="M15.151 4.925a4.893 4.893 0 0 1-.058.66 6.004 6.004 0 0 1-5.928 5.083h-2.94c-.3 0-.557.219-.603.516l-.923 5.847-.578 3.668a.496.496 0 0 0 .49.574h3.191a.612.612 0 0 0 .604-.516l.84-5.33a.612.612 0 0 1 .605-.517h1.879a6.004 6.004 0 0 0 5.928-5.083c.325-2.076-.72-3.965-2.507-4.902Z" fill="#0070E0"/><path d="M3.604.063c-.3 0-.557.22-.604.516L.496 16.457a.497.497 0 0 0 .491.574H4.7l.922-5.847 1.003-6.363a.612.612 0 0 1 .604-.516h5.32c.968 0 1.85.226 2.603.62.051-2.663-2.146-4.862-5.167-4.862h-6.38Z" fill="#003087"/></symbol><symbol fill="none" viewBox="0 0 20 20" id="pin" xmlns="http://www.w3.org/2000/svg"><path d="M17.803 8.862 9.42 17.245a4.122 4.122 0 0 1-5.831 0 4.122 4.122 0 0 1 0-5.832L12.7 2.302a2.578 2.578 0 0 1 3.645 3.644L8.69 13.6c-.4.4-1.057.4-1.458 0-.4-.4-.4-1.057 0-1.458l6.925-6.925-1.093-1.093-6.925 6.925a2.578 2.578 0 0 0 3.645 3.644l7.653-7.653a4.122 4.122 0 0 0 0-5.832 4.122 4.122 0 0 0-5.831 0L2.495 10.32a5.667 5.667 0 0 0 0 8.018 5.666 5.666 0 0 0 8.019 0l8.382-8.383-1.093-1.093Z" fill="currentColor"/></symbol><symbol fill="none" viewBox="0 0 25 25" id="pint" xmlns="http://www.w3.org/2000/svg"><path d="M19.64 3.922c-1.576-1.453-3.758-2.254-6.143-2.254-3.643 0-5.883 1.435-7.121 2.638C4.85 5.789 3.975 7.758 3.975 9.708c0 2.45 1.066 4.329 2.852 5.028.12.047.24.071.358.071.377 0 .676-.237.779-.616.06-.218.2-.756.26-.99.13-.46.026-.682-.258-1.003-.516-.587-.757-1.28-.757-2.184 0-2.684 2.08-5.536 5.935-5.536 3.06 0 4.96 1.67 4.96 4.359 0 1.696-.381 3.267-1.072 4.424-.48.804-1.324 1.761-2.62 1.761-.56 0-1.064-.22-1.382-.606-.3-.365-.4-.836-.278-1.326.136-.555.322-1.133.502-1.692.328-1.022.638-1.986.638-2.756 0-1.316-.842-2.2-2.096-2.2-1.593 0-2.84 1.554-2.84 3.538 0 .974.268 1.701.39 1.98-.2.818-1.393 5.674-1.62 6.59-.13.534-.918 4.757.386 5.093 1.466.379 2.776-3.733 2.909-4.198.108-.378.486-1.807.718-2.686.707.655 1.846 1.098 2.955 1.098 2.09 0 3.969-.904 5.291-2.544 1.283-1.59 1.99-3.808 1.99-6.242 0-1.904-.851-3.78-2.335-5.149Z" fill="#BFCFD5"/></symbol><symbol fill="none" viewBox="0 0 21 23" id="play" xmlns="http://www.w3.org/2000/svg"><path d="M18.409 8.596a2.998 2.998 0 0 1 0 5.294L5.597 20.857C3.534 21.979 1 20.519 1 18.211V4.276C1 1.966 3.534.507 5.597 1.628l12.812 6.968Z" stroke="currentColor" stroke-width="1.8"/></symbol><symbol fill="none" viewBox="0 0 20 21" id="play-round" xmlns="http://www.w3.org/2000/svg"><g clip-path="url(#bda)"><path fill-rule="evenodd" clip-rule="evenodd" d="M1.75 10.5a8.25 8.25 0 1 1 16.5 0 8.25 8.25 0 0 1-16.5 0ZM10 .75C4.615.75.25 5.115.25 10.5s4.365 9.75 9.75 9.75 9.75-4.365 9.75-9.75S15.385.75 10 .75Zm-.927 5.018 5.59 3.913a1 1 0 0 1 0 1.638l-5.59 3.913a1 1 0 0 1-1.573-.82V6.588a1 1 0 0 1 1.573-.819Z" fill="#141414"/></g><defs><clipPath id="bda"><path fill="#fff" transform="translate(0 .5)" d="M0 0h20v20H0z"/></clipPath></defs></symbol><symbol fill="none" viewBox="0 0 20 21" id="question-mark" xmlns="http://www.w3.org/2000/svg"><g clip-path="url(#bfa)"><path fill-rule="evenodd" clip-rule="evenodd" d="M10 2.17a8.25 8.25 0 1 0 0 16.5 8.25 8.25 0 0 0 0-16.5ZM.25 10.42C.25 5.035 4.615.67 10 .67s9.75 4.365 9.75 9.75-4.365 9.75-9.75 9.75S.25 15.805.25 10.42Zm8.36-3.624a2.045 2.045 0 0 0-.36 1.125.75.75 0 1 1-1.5 0c0-.537.155-1.325.642-2.001.514-.714 1.364-1.25 2.609-1.25 1.244 0 2.094.536 2.608 1.25.487.676.642 1.464.642 2 0 .763-.195 1.355-.52 1.835-.312.458-.717.77-1.03 1.005l-.067.05c-.307.23-.507.38-.657.567-.13.163-.226.363-.226.71a.75.75 0 1 1-1.5 0c0-.694.216-1.223.555-1.647.277-.346.634-.612.907-.815l.088-.065c.31-.233.531-.416.689-.648.143-.21.26-.504.26-.991 0-.297-.095-.759-.358-1.125-.236-.327-.636-.625-1.391-.625-.756 0-1.156.298-1.392.625ZM10 16.254a.833.833 0 1 0 0-1.667.833.833 0 0 0 0 1.667Z" fill="#000" fill-opacity=".4"/></g><defs><clipPath id="bfa"><path fill="#fff" transform="translate(0 .422)" d="M0 0h20v20H0z"/></clipPath></defs></symbol><symbol fill="none" viewBox="0 0 20 21" id="refresh" xmlns="http://www.w3.org/2000/svg"><g clip-path="url(#bga)"><path fill-rule="evenodd" clip-rule="evenodd" d="M1.297 6.386 2.577 8.6a7.56 7.56 0 0 1 13.466-3.097l-1.199.9A6.06 6.06 0 0 0 4.047 8.897l2.099-1.211.75 1.299-4.373 2.525-2.525-4.373 1.3-.75Zm14.652 4.79A6.06 6.06 0 0 1 5.15 13.672l-1.2.901a7.56 7.56 0 0 0 13.469-3.102L18.7 13.69l1.3-.75-2.527-4.375-4.375 2.526.75 1.3 2.1-1.214Z" fill="#FF3900"/></g><defs><clipPath id="bga"><path fill="#fff" transform="translate(0 .038)" d="M0 0h20v20H0z"/></clipPath></defs></symbol><symbol fill="none" viewBox="0 0 20 20" id="search" xmlns="http://www.w3.org/2000/svg"><g clip-path="url(#bha)"><path fill-rule="evenodd" clip-rule="evenodd" d="M1.749 8a6.25 6.25 0 1 1 12.5 0 6.25 6.25 0 0 1-12.5 0ZM7.999.25a7.75 7.75 0 1 0 4.926 13.733.708.708 0 0 0 .043.047l5.5 5.5a.75.75 0 1 0 1.061-1.06l-5.5-5.5a.762.762 0 0 0-.047-.044A7.75 7.75 0 0 0 7.999.25Z" fill="#BFCFD5"/></g><defs><clipPath id="bha"><path fill="#fff" d="M0 0h20v20H0z"/></clipPath></defs></symbol><symbol fill="none" viewBox="0 0 24 25" id="share" xmlns="http://www.w3.org/2000/svg"><path d="M13 4.243v4c-6.575 1.028-9.02 6.788-10 12-.037.206 5.384-5.962 10-6v4l8-7-8-7Z" stroke="#fff" stroke-width="1.8" stroke-linecap="round" stroke-linejoin="round"/></symbol><symbol fill="none" viewBox="0 0 24 25" id="share-button" xmlns="http://www.w3.org/2000/svg"><g clip-path="url(#bia)"><path fill-rule="evenodd" clip-rule="evenodd" d="M20 2.184a2.1 2.1 0 1 0 0 4.2 2.1 2.1 0 0 0 0-4.2Zm-3.9 2.1a3.9 3.9 0 1 1 .892 2.482L7.604 10.79c.19.46.296.965.296 1.494s-.105 1.034-.296 1.494l9.388 4.023a3.9 3.9 0 1 1-.796 1.617l-9.685-4.15a3.9 3.9 0 1 1 0-5.968l9.686-4.15a3.912 3.912 0 0 1-.097-.866Zm3.9 13.9a2.1 2.1 0 1 0 0 4.2 2.1 2.1 0 0 0 0-4.2Zm-18.1-5.9a2.1 2.1 0 1 1 4.2 0 2.1 2.1 0 0 1-4.2 0Z" fill="currentColor"/></g><defs><clipPath id="bia"><path fill="#fff" transform="translate(0 .284)" d="M0 0h24v24H0z"/></clipPath></defs></symbol><symbol fill="none" viewBox="0 0 24 24" id="shop" xmlns="http://www.w3.org/2000/svg"><g clip-path="url(#bka)"><path fill-rule="evenodd" clip-rule="evenodd" d="M.3 10.8V12a6.897 6.897 0 0 0 3.456 5.98 3.3 3.3 0 1 0 5.184.92h6.12A3.3 3.3 0 1 0 18 17.1H7.2a5.094 5.094 0 0 1-4.168-2.16c.542.232 1.14.36 1.768.36H18a5.7 5.7 0 0 0 5.7-5.7V5.194l-.8-.088L2.1 2.795V.6H.3v10.2Zm1.8-6.194V10.8a2.7 2.7 0 0 0 2.7 2.7H18a3.9 3.9 0 0 0 3.9-3.9V6.806l-19.8-2.2ZM4.5 20.4a1.5 1.5 0 1 1 3 0 1.5 1.5 0 0 1-3 0ZM18 18.9a1.5 1.5 0 1 0 0 3 1.5 1.5 0 0 0 0-3Z" fill="currentColor"/></g><defs><clipPath id="bka"><path fill="#fff" d="M0 0h24v24H0z"/></clipPath></defs></symbol><symbol fill="none" viewBox="0 0 20 21" id="time" xmlns="http://www.w3.org/2000/svg"><g clip-path="url(#bla)"><path fill-rule="evenodd" clip-rule="evenodd" d="M1.75 10.5a8.25 8.25 0 1 1 16.5 0 8.25 8.25 0 0 1-16.5 0ZM10 .75C4.615.75.25 5.115.25 10.5s4.365 9.75 9.75 9.75 9.75-4.365 9.75-9.75S15.385.75 10 .75Zm.75 4.75a.75.75 0 1 0-1.5 0v5c0 .414.336.75.75.75h5a.75.75 0 1 0 0-1.5h-4.25V5.5Z" fill="#141414"/></g><defs><clipPath id="bla"><path fill="#fff" transform="translate(0 .5)" d="M0 0h20v20H0z"/></clipPath></defs></symbol><symbol fill="none" viewBox="0 0 24 24" id="word" xmlns="http://www.w3.org/2000/svg"><g clip-path="url(#bma)"><path fill-rule="evenodd" clip-rule="evenodd" d="M12 2.1c-.111 0-.223.002-.334.005-1.151 1.28-2 3.026-2.524 4.995h5.715c-.523-1.97-1.373-3.714-2.524-4.995-.11-.003-.221-.005-.333-.005Zm3.235 6.8h-6.47a19.958 19.958 0 0 0-.24 3.1c0 1.051.08 2.094.239 3.1h6.471c.159-1.006.24-2.049.24-3.1 0-1.051-.081-2.093-.24-3.1ZM7.286 7.1c.396-1.66 1.005-3.225 1.836-4.575A9.926 9.926 0 0 0 3.396 7.1h3.89Zm-4.69 1.8h4.348a21.842 21.842 0 0 0-.22 3.1c0 1.035.073 2.077.22 3.1H2.596A9.89 9.89 0 0 1 2.1 12a9.89 9.89 0 0 1 .495-3.1Zm14.459 0h4.35A9.89 9.89 0 0 1 21.9 12a9.89 9.89 0 0 1-.495 3.1h-4.35c.147-1.023.22-2.065.22-3.1 0-1.034-.073-2.076-.22-3.1Zm3.55-1.8h-3.892c-.396-1.66-1.005-3.225-1.836-4.576A9.926 9.926 0 0 1 20.605 7.1ZM7.286 16.9h-3.89a9.926 9.926 0 0 0 5.725 4.575c-.83-1.35-1.439-2.915-1.835-4.575Zm7.571 0H9.142c.523 1.97 1.373 3.714 2.524 4.994a10.067 10.067 0 0 0 .668 0c1.15-1.28 2-3.025 2.523-4.994Zm.02 4.575c.832-1.35 1.44-2.915 1.836-4.575h3.892a9.926 9.926 0 0 1-5.727 4.575ZM.3 12C.3 5.538 5.54.3 12 .3 18.462.3 23.7 5.538 23.7 12c0 6.462-5.238 11.7-11.7 11.7C5.54 23.7.3 18.462.3 12Z" fill="currentColor"/></g><defs><clipPath id="bma"><path fill="#fff" d="M0 0h24v24H0z"/></clipPath></defs></symbol><symbol fill="none" viewBox="0 0 25 25" id="youtube" xmlns="http://www.w3.org/2000/svg"><g clip-path="url(#bna)"><path d="M23.955 5.306c-.651-1.193-1.358-1.412-2.796-1.496-1.437-.1-5.05-.142-8.181-.142-3.137 0-6.752.042-8.187.14-1.436.086-2.144.304-2.8 1.498C1.32 6.498.974 8.55.974 12.163V12.176c0 3.598.345 5.665 1.015 6.844.657 1.194 1.364 1.41 2.8 1.51 1.436.087 5.051.138 8.188.138 3.13 0 6.744-.051 8.182-.136 1.439-.1 2.145-.317 2.796-1.51.677-1.18 1.019-3.247 1.019-6.845v-.012c0-3.615-.342-5.667-1.02-6.859ZM9.975 16.804V7.532l7.5 4.636-7.5 4.636Z" fill="#BFCFD5"/></g><defs><clipPath id="bna"><path fill="#fff" transform="translate(.975 .668)" d="M0 0h24v24H0z"/></clipPath></defs></symbol></svg>